<svg xmlns="http://www.w3.org/2000/svg" width="16" height="16" viewBox="0 0 24 24" fill="none" stroke="currentColor" stroke-width="1.6" stroke-linecap="round" stroke-linejoin="round">
  <rect width="24" height="24" rx="4" fill="#7c3aed" stroke="none"/>
  <path d="M9 6c-1.5 0-2 1-2 2.2v1.1c0 .7-.4 1.3-1.1 1.6 0 0 .9.3 1.1 1v1.1C7 14.9 7.5 16 9 16" stroke="white"/>
  <path d="M15 6c1.5 0 2 1 2 2.2v1.1c0 .7.4 1.3 1.1 1.6 0 0-.9.3-1.1 1v1.1C17 14.9 16.5 16 15 16" stroke="white"/>
  <path d="M11.2 9.4c-.8 0-1.4.6-1.4 1.4v.2c-.4.2-.7.6-.7 1.1 0 .5.3.9.7 1.1v.3c0 .8.6 1.4 1.4 1.4" stroke="white"/>
  <path d="M12.8 9.4c.8 0 1.4.6 1.4 1.4v.2c.4.2.7.6.7 1.1 0 .5-.3.9-.7 1.1v.3c0 .8-.6 1.4-1.4 1.4" stroke="white"/>
  <path d="M12 9.1v5.6" stroke="white"/>
</svg>
